<?xml version="1.0" encoding="UTF-8"?>
<svg id="Bold" xmlns="http://www.w3.org/2000/svg" xmlns:xlink="http://www.w3.org/1999/xlink" enable-background="new 0 0 512 512" viewBox="0 0 512 512" width="512px" height="512px">
<g id="surface31031758">
<path style=" stroke:none;fill-rule:nonzero;fill:rgb(0%,0%,0%);fill-opacity:1;" d="M 256 20.480469 C 125.953125 20.480469 20.480469 125.953125 20.480469 256 C 20.480469 386.046875 125.953125 491.519531 256 491.519531 C 386.046875 491.519531 491.519531 386.046875 491.519531 256 C 491.519531 125.953125 386.046875 20.480469 256 20.480469 Z M 194.558594 358.398438 C 194.558594 364.542969 190.464844 368.640625 184.320312 368.640625 L 143.359375 368.640625 C 137.214844 368.640625 133.121094 364.542969 133.121094 358.398438 L 133.121094 204.800781 C 133.121094 198.65625 137.214844 194.558594 143.359375 194.558594 L 184.320312 194.558594 C 190.464844 194.558594 194.558594 198.65625 194.558594 204.800781 Z M 163.839844 184.320312 C 147.457031 184.320312 133.121094 169.984375 133.121094 153.601562 C 133.121094 137.214844 147.457031 122.878906 163.839844 122.878906 C 180.222656 122.878906 194.558594 137.214844 194.558594 153.601562 C 194.558594 169.984375 180.222656 184.320312 163.839844 184.320312 Z M 389.121094 358.398438 C 389.121094 364.542969 385.023438 368.640625 378.878906 368.640625 L 337.921875 368.640625 C 331.777344 368.640625 327.679688 364.542969 327.679688 358.398438 L 327.679688 281.601562 C 327.679688 267.265625 316.414062 256 302.078125 256 C 287.742188 256 276.480469 267.265625 276.480469 281.601562 L 276.480469 358.398438 C 276.480469 364.542969 272.382812 368.640625 266.238281 368.640625 L 225.28125 368.640625 C 219.136719 368.640625 215.039062 364.542969 215.039062 358.398438 L 215.039062 204.800781 C 215.039062 198.65625 219.136719 194.558594 225.28125 194.558594 L 266.238281 194.558594 C 271.359375 194.558594 276.480469 199.679688 276.480469 204.800781 C 287.742188 198.65625 299.007812 194.558594 312.320312 194.558594 C 354.304688 194.558594 389.121094 229.375 389.121094 271.359375 Z M 389.121094 358.398438 "/>
</g>
</svg>
